# xmcd
#
# Track frame offsets:
#	150
#	17203
#	42992
#	67362
#	89127
#	113039
#	134840
#	155351
#	183760
#	214286
#
# Disc length: 3160 seconds
#
# Revision: 1
# Processed by: cddbd v1.5.2PL0 Copyright (c) Steve Scherf et al.
# Submitted via: EZCDAudioConverter 8.0.2.1
#
DISCID=990c560a
DTITLE=Xuân Phú - Anh Còn Nợ Em
DYEAR=2010
DGENRE=Pop
TTITLE0=Anh Còn Nợ Em
TTITLE1=Tuổi xa người
TTITLE2=Đàn bà
TTITLE3=Chờ người
TTITLE4=Tình khúc tháng sáu
TTITLE5=Đèn khuya
TTITLE6=Cho lần cuối
TTITLE7=Đừng lừa dối nhau
TTITLE8=Khi người yêu tôi khóc
TTITLE9=Bài thơ không đoạn kết
EXTD=
EXTT0=
EXTT1=
EXTT2=
EXTT3=
EXTT4=
EXTT5=
EXTT6=
EXTT7=
EXTT8=
EXTT9=
PLAYORDER=
